<svg height="511pt" width="511pt" fill="white" xmlns="http://www.w3.org/2000/svg" viewBox="0 0 511.997 511.997"><path d="M414.305 140.683a7.5 7.5 0 00-7.5 7.5v1.198c0 4.143 3.357 7.5 7.5 7.5s7.5-3.357 7.5-7.5v-1.198c0-4.143-3.357-7.5-7.5-7.5zM433.784 174.143a7.499 7.499 0 00-7.5 7.5v1.198a7.5 7.5 0 007.5 7.5c4.143 0 7.5-3.357 7.5-7.5v-1.198c0-4.143-3.357-7.5-7.5-7.5zM269.566 167.1l-.555-1.063a7.499 7.499 0 00-10.119-3.178 7.5 7.5 0 00-3.178 10.119l.555 1.063a7.497 7.497 0 0010.119 3.178 7.5 7.5 0 003.178-10.119zM302.32 187.743l-.555-1.063a7.498 7.498 0 00-10.119-3.178 7.5 7.5 0 00-3.178 10.119l.555 1.063a7.496 7.496 0 0010.119 3.178 7.5 7.5 0 003.178-10.119zM255.653 336.959l-22.308-22.309a7.5 7.5 0 00-10.606-.001 7.498 7.498 0 00-.001 10.606l22.308 22.309a7.474 7.474 0 005.303 2.197 7.498 7.498 0 005.304-12.802zM321.937 322.982a7.498 7.498 0 00-10.459-1.76l-77.855 55.428a7.5 7.5 0 008.699 12.219l77.855-55.428a7.5 7.5 0 001.76-10.459zM349.461 334.295a7.498 7.498 0 00-10.459-1.76l-29.885 21.276a7.5 7.5 0 008.699 12.219l29.885-21.276a7.499 7.499 0 001.76-10.459z"/><path d="M510.581 300.265a7.503 7.503 0 00-10.471-1.697l-2.498 1.801c.01-.643.025-1.285.025-1.93 0-7.155-2.784-13.887-7.854-18.971-5.069-5.056-11.802-7.84-18.956-7.84h-2.22c8.231-15.903 12.41-35.053 12.41-57.16 0-43.355-16.252-90.745-41.403-120.73a7.498 7.498 0 00-10.566-.926 7.5 7.5 0 00-.926 10.566c23.021 27.444 37.896 71.05 37.896 111.09 0 23.075-4.96 42.281-14.743 57.16h-14.849l6.598-4.697a7.499 7.499 0 001.76-10.459 7.498 7.498 0 00-10.459-1.76l-23.76 16.916h-44.612c4.496-22.773-.187-48.215-13.774-74.241-9.726-18.624-23.539-36.645-39.428-51.913 16.366-41.395 43.45-67.876 69.84-67.876 7.97 0 16.002 2.319 23.871 6.895a7.502 7.502 0 007.539-12.969c-10.189-5.923-20.757-8.926-31.41-8.926-31.927 0-62.627 27.434-81.716 72.304-6.502-5.35-13.24-10.214-20.104-14.453-32.309-19.954-62.903-24.26-86.144-12.127-21.437 11.203-35.168 36.044-38.666 69.947a7.498 7.498 0 006.69 8.229 7.488 7.488 0 008.229-6.69c2.965-28.731 13.865-49.397 30.69-58.191 40.964-21.386 108.616 27.764 137.312 82.713 12.763 24.448 16.69 47.056 11.721 67.299H228.02l-12.587-12.587a7.5 7.5 0 00-10.607 10.607l1.979 1.979h-20.59c-8.354-18.987-13.846-40.79-15.549-61.941-.332-4.128-3.944-7.215-8.077-6.874a7.5 7.5 0 00-6.874 8.077 210.237 210.237 0 0010.407 50.432c-21.376-18.215-49.297-28.004-78.044-26.443a7.5 7.5 0 00-6.287 4.108c-11.279 22.333-14.45 47.541-9.772 71.413.044.724.187 1.419.421 2.072 1.47 6.811 3.59 13.5 6.342 19.973-32.102 4.979-60.609 23.9-77.696 52.086a7.5 7.5 0 00-.154 7.508c12.085 21.932 31.134 38.783 53.513 48.384.597.35 1.22.615 1.861.785A110.339 110.339 0 0097.94 449.4c5.335 0 10.62-.403 15.827-1.16a7.52 7.52 0 001.45-.215c22.044-3.507 42.538-13.63 58.718-28.839.367.055.739.093 1.121.093h33.654c4.143 0 7.5-3.357 7.5-7.5s-3.357-7.5-7.5-7.5h-21.534a110.244 110.244 0 005.569-8.293c.053-.088.096-.18.145-.269.045-.081.099-.155.141-.239 17.469-34.608 15.492-76.116-5.034-108.85h33.808l20.419 20.419c1.465 1.464 3.385 2.196 5.304 2.196s3.839-.732 5.304-2.196a7.5 7.5 0 000-10.607l-9.812-9.812h20.357l27.844 27.844a7.481 7.481 0 005.304 2.196 7.5 7.5 0 005.304-12.803l-17.236-17.236h71.644l.025.002.025-.002h33.211l-16.374 11.657a7.499 7.499 0 004.356 13.61 7.464 7.464 0 004.343-1.392l33.536-23.876h39.824l.013.001.017-.001h15.619c3.155 0 6.126 1.229 8.35 3.446a11.77 11.77 0 013.46 8.364c0 4.515-.286 8.964-.837 13.332l-55.07 39.708a7.502 7.502 0 004.393 13.585c1.52 0 3.054-.461 4.381-1.417l40.934-29.515c-8.178 22.758-23.942 41.926-44.23 54.444l-83.64-83.64a7.5 7.5 0 00-10.607 10.607l80.279 80.279a105.075 105.075 0 01-35.038 8.257l-32.697-32.696a7.5 7.5 0 00-10.606.001 7.498 7.498 0 00.001 10.606l22.289 22.288H288.77l-12.033-12.033a7.5 7.5 0 00-10.607 10.607l1.426 1.426h-27.599c-4.143 0-7.5 3.357-7.5 7.5s3.357 7.5 7.5 7.5h42.592l16.916 16.916a7.481 7.481 0 005.304 2.196 7.5 7.5 0 005.304-12.803l-6.309-6.309h73.023c18.908 0 36.813-4.369 52.766-12.143l6.3 6.3a7.481 7.481 0 005.304 2.196 7.5 7.5 0 005.304-12.803l-3.396-3.396c27.041-17.802 46.542-46.156 52.591-79.158l13.229-9.538a7.502 7.502 0 001.696-10.47zm-336.24-7.172a95.46 95.46 0 012.411 3.915l-18.985 37.671-21.677-33.17 15.171-32.857c8.96 6.638 16.819 14.861 23.08 24.441zm-24.787 56.437l-41.347 2.082a94.808 94.808 0 01-7.74-10.241A95.206 95.206 0 0189.18 317.29l38.89-.635 21.484 32.875zm-11.113-88.897l-12.033 26.06-23.916-36.596a96.205 96.205 0 0135.949 10.536zm-48.51-2.339l28.439 43.517-32.52.531a96.247 96.247 0 014.081-44.048zm-3.877 88.338c.603.987 1.22 1.97 1.856 2.944a109.917 109.917 0 0011.115 14.271 7.6 7.6 0 00.992 1.06 110.967 110.967 0 0022.629 18.383l-39.46-.811-18.604-31.116a95.285 95.285 0 0121.472-4.731zm-35.335 10.774l14.772 24.708-43.728-.899a95.815 95.815 0 0128.956-23.809zm4.813 67.023a96.24 96.24 0 01-34.066-28.218l51.973 1.069-17.907 27.149zm53.292 9.337c-4.227.489-8.509.7-12.822.615a95.245 95.245 0 01-26.249-4.268l21.415-32.469 39.263.807-21.607 35.315zm20.451-4.685l18.522-30.272 22.767.468c.468.043.938.074 1.407.111-11.286 13.701-26.13 23.935-42.696 29.693zm42.165-44.788c-17.402-1.705-33.946-8.158-47.84-18.437l35.455-1.786 13.227 20.24-.842-.017zm13.441-8.123l-17.631-26.979 17.5-34.725c6.773 19.879 6.885 41.637.131 61.704z"/><path d="M436.977 313.123a7.5 7.5 0 00-10.47-1.696l-26.429 19.057a7.5 7.5 0 008.774 12.166l26.429-19.057a7.5 7.5 0 001.696-10.47z"/></svg>
