<?xml version="1.0" encoding="iso-8859-1"?>
<!-- Generator: Adobe Illustrator 19.0.0, SVG Export Plug-In . SVG Version: 6.00 Build 0)  -->
<svg version="1.1" id="Layer_1" fill="white" xmlns="http://www.w3.org/2000/svg" xmlns:xlink="http://www.w3.org/1999/xlink" x="0px" y="0px"
	 viewBox="0 0 299.2 299.2" style="enable-background:new 0 0 299.2 299.2;" xml:space="preserve">
<g>
	<g>
		<path d="M297.456,143.042C273.358,100.949,228.504,74.8,180.4,74.8c-42.436,0-82.329,20.356-107.687,54.046l-50.179-50.18
			c-3.775-3.776-9.453-4.904-14.385-2.862C3.216,77.848,0,82.661,0,88v123.2c0,5.339,3.216,10.152,8.149,12.195
			c1.632,0.677,3.348,1.006,5.049,1.006c3.435,0,6.811-1.342,9.336-3.868l50.178-50.178C98.07,204.044,137.965,224.4,180.4,224.4
			c48.107,0,92.961-26.149,117.057-68.242C299.782,152.095,299.782,147.105,297.456,143.042z M26.4,179.332v-59.464L56.133,149.6
			L26.4,179.332z M180.4,198c-36.107,0-69.954-18.364-90.078-48.4c20.124-30.036,53.971-48.4,90.078-48.4
			c36.105,0,69.952,18.364,90.077,48.4C250.354,179.636,216.507,198,180.4,198z"/>
	</g>
</g>
<g>
</g>
<g>
</g>
<g>
</g>
<g>
</g>
<g>
</g>
<g>
</g>
<g>
</g>
<g>
</g>
<g>
</g>
<g>
</g>
<g>
</g>
<g>
</g>
<g>
</g>
<g>
</g>
<g>
</g>
</svg>
