<svg id="Capa_1" enable-background="new 0 0 508 508" height="512" viewBox="0 0 508 508" width="512" xmlns="http://www.w3.org/2000/svg"><g><g><path d="m30.758 387.945c8.219 0 14.883-6.664 14.883-14.883 0-8.206 6.676-14.883 14.883-14.893h75.909c-.562 2.764-.951 5.577-1.198 8.431l-55.469 55.47c-4.256 4.257-5.529 10.658-3.227 16.219 2.304 5.561 7.731 9.188 13.75 9.188h74.414v45.641c0 8.219 6.664 14.883 14.883 14.883s14.883-6.664 14.883-14.883v-45.641h29.766v14.883c0 8.219 6.664 14.883 14.883 14.883s14.883-6.664 14.883-14.883v-29.766c0-3.947-1.568-7.733-4.36-10.524-2.79-2.791-6.575-4.359-10.523-4.359h-44.648v-29.766h59.53c22.234 0 41.647-12.26 51.869-30.367 54.168-5.662 96.96-51.536 96.96-107.764v-6.293c0-21.45-6.283-42.218-18.169-60.056 0 0-42.331-64.489-42.352-64.518-2.189-3.284-3.289-6.892-3.288-10.529 9.813 6.848 21.609 10.645 34.043 10.645 10.84 0 21.002-2.926 29.766-8.009v22.892c0 8.219 6.664 14.883 14.883 14.883h14.883c32.826 0 59.531-26.706 59.531-59.531s-26.706-59.531-59.531-59.531h-8.009c-10.311-17.777-29.538-29.767-51.523-29.767h-14.883c-40.044 0-76.654 21.93-95.544 57.231-18.79 35.101-16.681 79.158 5.375 112.239l42.313 63.469c2.097 3.156 3.207 6.814 3.207 10.581v6.293c0 8.1-5.193 15.391-12.893 18.033-23.242-51.962-75.426-88.261-135.934-88.261-82.064 0-148.828 66.764-148.828 148.828v44.648c-.001 8.221 6.663 14.884 14.882 14.884zm401.836-328.414c16.413 0 29.766 13.353 29.766 29.766s-13.353 29.766-29.766 29.766zm-89.297 190.283v-6.293c0-9.649-2.832-19.007-8.197-27.077l-42.323-63.484c-16.046-24.068-17.576-56.13-3.897-81.683 13.701-25.605 40.256-41.511 69.3-41.511h14.883c16.413 0 29.766 13.353 29.766 29.766s-13.353 29.766-29.766 29.766c-10.304 0-19.736-5.218-25.229-13.958-2.355-3.747-6.258-6.252-10.645-6.833-4.382-.58-8.807.821-12.057 3.826-4.01 3.708-7.379 8.078-10.014 12.998-8.631 16.134-7.735 34.851 2.394 50.081 0 0 42.337 64.497 42.357 64.527 8.632 12.942 13.195 28.013 13.195 43.585v6.293c0 36.517-25.467 67.619-59.562 76.221-.162-10.267-1.367-20.283-3.516-29.95 20.154-6.766 33.311-25.595 33.311-46.274zm-178.594 167.897h-38.484l29.766-29.766h8.718zm-119.062-89.297c0-65.651 53.411-119.063 119.063-119.063s119.063 53.411 119.063 119.063c0 16.413-13.353 29.766-29.766 29.766h-86.747c6.142-17.325 22.694-29.766 42.099-29.766 8.219 0 14.883-6.664 14.883-14.883s-6.664-14.883-14.883-14.883c-24.295 0-45.907 11.701-59.497 29.766h-89.333c-5.216 0-10.226.899-14.883 2.55v-2.55z"/></g></g></svg>