<?xml version="1.0"?>
<svg xmlns="http://www.w3.org/2000/svg" viewBox="0 0 512 512" width="512" height="512" fill="white"><g id="outline"><path d="M498.557,288.814a7.967,7.967,0,0,0-4.336-3.375,244.035,244.035,0,0,0-2.8-76.465l3.089-4.324a8,8,0,0,0-7.089-12.628A237.132,237.132,0,0,0,455.5,122.469l1.2-5.184a7.995,7.995,0,0,0-11.443-8.919q-5.732-7.319-12.075-14.238l9.107-12.386,36-.341a8,8,0,0,0-.151-16l-24,.228,9.478-12.891a8,8,0,0,0-12.89-9.478L421.852,82.533A242.077,242.077,0,0,0,389.216,56.28l-.875-5.245A8,8,0,0,0,374.4,47.12a237.12,237.12,0,0,0-71.743-26.61L299.837,16a8,8,0,0,0-14.4,1.784,244.029,244.029,0,0,0-76.464,2.8L204.65,17.49a8,8,0,0,0-12.628,7.089A237.132,237.132,0,0,0,122.469,56.5l-5.184-1.2a8,8,0,0,0-8.92,11.443A243.881,243.881,0,0,0,87.971,84.658L72,68.687V48a8,8,0,0,0-16,0V61.754L33.94,56.239a8,8,0,1,0-3.88,15.522l29.85,7.463L76.917,96.23A241.456,241.456,0,0,0,56.28,122.784l-5.245.875A8,8,0,0,0,47.121,137.6,237.15,237.15,0,0,0,20.51,209.345L16,212.163a7.982,7.982,0,0,0,1.786,14.387,244,244,0,0,0,2.8,76.476L17.49,307.35a8,8,0,0,0,6.5,12.65c.2,0,.389-.019.583-.033A237.1,237.1,0,0,0,56.34,389.3l-8.178,49.066L40.239,470.06a8,8,0,1,0,15.522,3.88l4.573-18.292,14.009,14.009a8,8,0,1,0,11.314-11.314L64.568,437.254l5.012-30.073a243.514,243.514,0,0,0,53.2,48.539l.875,5.245A8,8,0,0,0,137.6,464.88a237.12,237.12,0,0,0,71.743,26.61l2.818,4.515a8,8,0,0,0,14.4-1.784,244.029,244.029,0,0,0,76.464-2.8l4.324,3.089a8,8,0,0,0,12.628-7.089A237.132,237.132,0,0,0,389.531,455.5l5.184,1.2a8,8,0,0,0,8.92-11.443q8-6.264,15.513-13.261H436l21.6,28.8a8,8,0,1,0,12.8-9.6L456,432h16a8,8,0,0,0,0-16H434.88a241.449,241.449,0,0,0,20.84-26.784l5.245-.875A8,8,0,0,0,464.88,374.4a237.12,237.12,0,0,0,26.61-71.743l4.515-2.818A8,8,0,0,0,498.557,288.814ZM480,256a226.737,226.737,0,0,1-3.012,36.844L414.929,331.57a174.748,174.748,0,0,0,11.522-31.641L478.2,227.476A227.516,227.516,0,0,1,480,256ZM256,416a159.038,159.038,0,0,1-85.218-24.643l179.526-6.191A159.135,159.135,0,0,1,256,416Zm113.665-47.51-217.941,7.515a8.05,8.05,0,0,0-1.253.151,161.381,161.381,0,0,1-17.347-17.8l21.009-1.658a85.67,85.67,0,0,0,41.8,11.247c18.154,0,35.055-6.316,46.776-18.241l150.739-11.9A161.055,161.055,0,0,1,369.665,368.49ZM37.71,306.57l42.327-59.256a8.2,8.2,0,0,0-.028,1.066,8.1,8.1,0,0,0,.126,1.043C80.055,251.607,80,253.8,80,256a176.7,176.7,0,0,0,1.743,24.71L63.581,370.851A221.238,221.238,0,0,1,37.71,306.57ZM256,96a159.633,159.633,0,0,1,118.837,52.984l-115.268-13.56A55.445,55.445,0,0,0,232,128a54.393,54.393,0,0,0-15.731,2.33l-51.049-6.007A159.094,159.094,0,0,1,256,96ZM161.223,342.336c-14.127-8.156-24.764-20.275-29.949-34.124-4.981-13.3-4.275-26.6,1.987-37.445,8.008-13.87,23.643-21.246,41.093-21.246a70.232,70.232,0,0,1,34.869,9.676c16.019,9.249,27,23.364,31.256,38.018q.081.354.194.7c3.125,11.336,2.229,22.953-3.489,32.856C223.951,353.688,189.874,358.877,161.223,342.336Zm-41.818-79.569a55.126,55.126,0,0,0-6.567,18.045l-15.027-.733A160.559,160.559,0,0,1,96,256c0-.125,0-.248,0-.372l29.526-1.406A54.187,54.187,0,0,0,119.405,262.767ZM232,144a40,40,0,0,1,20.69,5.868c.154.1.308.2.47.294C269.043,159.956,280,180.405,280,204a74.758,74.758,0,0,1-.974,12.021,77.216,77.216,0,0,0-12.573,18.52,67.175,67.175,0,0,0-5.649,17.394,43.265,43.265,0,0,1-21.541,11.379A88.989,88.989,0,0,0,191.1,235.335,70.89,70.89,0,0,1,184,204C184,170.916,205.533,144,232,144Zm180.867,80.437-8.614.474c-.421-1.081-.872-2.155-1.364-3.216A55.608,55.608,0,0,0,384.923,200h20.955A158.646,158.646,0,0,1,412.867,224.437ZM416,256a159.728,159.728,0,0,1-4.9,39.361l-24.9-1.215a77.948,77.948,0,0,0,15.245-21.319,62.885,62.885,0,0,0,6.406-32.09l7.381-.407Q415.987,248.066,416,256ZM249.186,277.242a57.5,57.5,0,0,0,11.543-5.275,55.1,55.1,0,0,0,4.28,13.705c.413.891.856,1.764,1.313,2.627l-12.255-.6A75.379,75.379,0,0,0,249.186,277.242Zm30.336,1.7c-5.271-11.361-4.789-24.669,1.356-37.475,6.4-13.331,18.07-24.455,32.868-31.32a71.18,71.18,0,0,1,29.845-6.793,60.75,60.75,0,0,1,15.294,1.918c13.746,3.576,24.219,11.8,29.49,23.162s4.79,24.669-1.355,37.474c-6.4,13.331-18.071,24.455-32.868,31.321s-30.829,8.6-45.139,4.874C295.267,298.523,284.793,290.3,279.522,278.938Zm16.43-77.2c-.015-.58-.016-1.163-.042-1.74h2.851Q297.336,200.848,295.952,201.74ZM173.031,233.62a72.45,72.45,0,0,0-20.667,3.341c-.246-.01-.494-.012-.744,0L96.838,239.57A158.733,158.733,0,0,1,106.122,200H168.09q-.088,1.987-.09,4A88.461,88.461,0,0,0,173.031,233.62ZM258,303.912l21.92,1.069a64.143,64.143,0,0,0,25.066,12.6,76.662,76.662,0,0,0,19.309,2.431,87.209,87.209,0,0,0,36.592-8.276c1.725-.8,3.4-1.665,5.06-2.56l40.259,1.964q-1.858,5.046-4.047,9.926L254.025,332.763A57.244,57.244,0,0,0,258,303.912ZM293.735,184A81.2,81.2,0,0,0,280.1,153.95l108.617,12.778A160.086,160.086,0,0,1,398.857,184ZM147.666,138.369l45.428,5.345C182.152,153.7,174,167.771,170.265,184H113.143A160.909,160.909,0,0,1,147.666,138.369ZM112.275,296.8a67.454,67.454,0,0,0,4.015,17.02,79.429,79.429,0,0,0,18.564,28.348l-12.942,1.022a159.218,159.218,0,0,1-20.779-46.933ZM474.29,205.43l-42.516,59.52Q432,260.5,432,256a176.753,176.753,0,0,0-1.725-24.584l20.119-86.882A221.219,221.219,0,0,1,474.29,205.43Zm-59.9-107.822a226.792,226.792,0,0,1,23.92,28.178l-16.493,71.223a175.315,175.315,0,0,0-14.192-30.271L392.954,78.709A227.511,227.511,0,0,1,414.392,97.608Zm-39.8-31.72L386.65,138.2a177.614,177.614,0,0,0-24.668-22.621L314.646,39.726A221.218,221.218,0,0,1,374.6,65.888ZM256,32a226.737,226.737,0,0,1,36.844,3.012L331.57,97.071a174.748,174.748,0,0,0-31.641-11.522L227.476,33.8A227.516,227.516,0,0,1,256,32Zm-50.57,5.71,59.52,42.516Q260.5,80,256,80a176.753,176.753,0,0,0-24.584,1.725L144.534,61.606A221.219,221.219,0,0,1,205.43,37.71ZM97.608,97.608a226.792,226.792,0,0,1,28.178-23.92l71.223,16.493a175.315,175.315,0,0,0-30.271,14.192L78.709,119.046A227.511,227.511,0,0,1,97.608,97.608Zm-31.72,39.8L138.2,125.35a177.614,177.614,0,0,0-22.621,24.668L39.726,197.354A221.218,221.218,0,0,1,65.888,137.4ZM32,256a226.737,226.737,0,0,1,3.012-36.844L97.071,180.43a174.748,174.748,0,0,0-11.522,31.641L33.8,284.524A227.516,227.516,0,0,1,32,256ZM97.608,414.392a226.792,226.792,0,0,1-23.92-28.178l16.493-71.223a175.315,175.315,0,0,0,14.192,30.271l14.673,88.029A227.511,227.511,0,0,1,97.608,414.392Zm39.8,31.72L125.35,373.8a177.614,177.614,0,0,0,24.668,22.621l47.336,75.856A221.218,221.218,0,0,1,137.4,446.112ZM256,480a226.737,226.737,0,0,1-36.844-3.012L180.43,414.929a174.748,174.748,0,0,0,31.641,11.522L284.524,478.2A227.516,227.516,0,0,1,256,480Zm50.57-5.71-59.52-42.516Q251.5,432,256,432a176.753,176.753,0,0,0,24.584-1.725l86.882,20.119A221.219,221.219,0,0,1,306.57,474.29Zm107.822-59.9a226.792,226.792,0,0,1-28.178,23.92l-71.223-16.493a175.315,175.315,0,0,0,30.271-14.192l88.029-14.673A227.511,227.511,0,0,1,414.392,414.392Zm31.72-39.8L373.8,386.65a177.614,177.614,0,0,0,22.621-24.668l75.856-47.336A221.218,221.218,0,0,1,446.112,374.6Z"/></g></svg>
