<svg id="Capa_1" enable-background="new 0 0 512 512" height="512" viewBox="0 0 512 512" width="512" xmlns="http://www.w3.org/2000/svg"><g><path d="m271.012 152.631c-.066-1.245.423-8.125-1.908-17.131h39.347c37.495 0 68-30.505 68-68v-52.5c0-8.284-6.716-15-15-15h-52.5c-37.495 0-68 30.505-68 68v30.787c-8.876-5.071-18.952-7.787-29.451-7.787-8.284 0-15 6.716-15 15s6.716 15 15 15c7.888 0 15.303 3.073 20.878 8.652 9.865 9.874 8.515 22.297 8.634 22.977-92.266 7.643-165.012 85.167-165.012 179.371 0 99.252 80.748 180 180 180s180-80.748 180-180c0-94.196-72.734-171.715-164.988-179.369zm37.938-122.631h37.5v37.5c0 20.953-17.047 38-38 38h-16.287l33.755-33.755c5.858-5.857 5.858-15.355 0-21.213-5.857-5.857-15.355-5.857-21.213 0l-33.755 33.755v-16.287c0-20.953 17.047-38 38-38zm-52.95 452c-82.71 0-150-67.29-150-150s67.29-150 150-150 150 67.29 150 150-67.29 150-150 150z"/><circle cx="166.05" cy="390.5" r="14.5"/><circle cx="222.436" cy="377.5" r="14.5"/><circle cx="210.55" cy="435" r="14.5"/></g></svg>