<svg height="511pt" width="511pt" fill="white" xmlns="http://www.w3.org/2000/svg" viewBox="0 0 511.999 511.999"><path d="M420.478 371.341L343.853 269.57h39.697a15.487 15.487 0 0012.371-24.797l-73.904-98.156h21.056a15.487 15.487 0 0012.371-24.797L268.368 6.171a15.48 15.48 0 00-24.738 0L156.556 121.82a15.484 15.484 0 0012.371 24.797h21.057l-73.904 98.156a15.484 15.484 0 0012.371 24.797h39.698L91.522 371.34a15.484 15.484 0 0012.371 24.797h105.021v100.378c0 8.551 6.933 15.484 15.484 15.484H287.6c8.551 0 15.484-6.933 15.484-15.484V396.137h105.024c5.87 0 11.235-3.32 13.856-8.572a15.489 15.489 0 00-1.486-16.224zM272.116 481.033h-32.235v-84.895h32.235v84.895zM134.929 365.171L211.555 263.4a15.484 15.484 0 00-12.371-24.797h-39.698l73.905-98.156a15.484 15.484 0 00-12.371-24.797h-21.056l56.034-74.424 56.033 74.424h-21.056a15.487 15.487 0 00-12.371 24.797l73.903 98.156H312.81a15.487 15.487 0 00-12.371 24.797l76.624 101.771H134.929z"/></svg>
