<svg version="1.1" viewBox="0.0 0.0 960.0 720.0" fill="none" stroke="none" stroke-linecap="square" stroke-miterlimit="10" xmlns:xlink="http://www.w3.org/1999/xlink" xmlns="http://www.w3.org/2000/svg"><clipPath id="p.0"><path d="m0 0l960.0 0l0 720.0l-960.0 0l0 -720.0z" clip-rule="nonzero"/></clipPath><g clip-path="url(#p.0)"><path fill="#000000" fill-opacity="0.0" d="m0 0l960.0 0l0 720.0l-960.0 0z" fill-rule="evenodd"/><path fill="#000000" fill-opacity="0.0" d="m9.092041 67.95197l64.24265 4.348755E-4l19.851654 -62.49834l19.851662 62.49834l64.242645 -4.348755E-4l-51.97364 38.625656l19.852486 62.49807l-51.973152 -38.626373l-51.973137 38.626373l19.852478 -62.49807z" fill-rule="evenodd"/><path stroke="#000000" stroke-width="4.0" stroke-linejoin="round" stroke-linecap="butt" d="m9.092041 67.95197l64.24265 4.348755E-4l19.851654 -62.49834l19.851662 62.49834l64.242645 -4.348755E-4l-51.97364 38.625656l19.852486 62.49807l-51.973152 -38.626373l-51.973137 38.626373l19.852478 -62.49807z" fill-rule="evenodd"/></g></svg>